<?xml version="1.0" encoding="utf-8"?>
<!-- Generator: Adobe Illustrator 16.0.0, SVG Export Plug-In . SVG Version: 6.00 Build 0)  -->
<!DOCTYPE svg PUBLIC "-//W3C//DTD SVG 1.1//EN" "http://www.w3.org/Graphics/SVG/1.1/DTD/svg11.dtd">
<svg version="1.1" id="圖層_1" xmlns="http://www.w3.org/2000/svg" xmlns:xlink="http://www.w3.org/1999/xlink" x="0px" y="0px"
	 width="330px" height="350px" viewBox="0 0 330 350" enable-background="new 0 0 330 350" xml:space="preserve">
<path fill="#808081" d="M221.621,127.439V87.615c0-7.351,5.959-13.31,13.313-13.31h17.676c7.351,0,13.312,5.959,13.31,13.31v39.824
	c0,7.352-5.959,13.311-13.31,13.311h-17.676C227.581,140.75,221.622,134.791,221.621,127.439z"/>
<path fill="#808081" d="M60.539,127.439V87.615c0-7.351,5.958-13.31,13.31-13.31h17.675c7.353,0,13.313,5.958,13.313,13.31v39.824
	c0,7.352-5.96,13.311-13.313,13.311H73.849C66.499,140.75,60.539,134.791,60.539,127.439z"/>
<g>
	<circle fill="#FAD5B1" cx="228.173" cy="123.167" r="15.614"/>
	<circle fill="#FAD5B1" cx="101.615" cy="123.167" r="15.615"/>
</g>
<path fill="#BEE3F3" d="M100.246,129.264V75.46c0-32.545,27.487-58.928,61.393-58.928h3.666c33.906,0,61.393,26.383,61.393,58.928
	v53.804c0,32.546-27.486,58.929-61.393,58.929h-3.666C127.734,188.193,100.246,161.811,100.246,129.264z"/>
<path fill="#A1C8D1" d="M138.654,74.305c-82.634-22.931-44.621,87.098-12.076,87.098h25.373c0,0-21.574-5.852-27.771-32.093
	C115.831,93.947,138.654,74.305,138.654,74.305z"/>
<circle fill="#6E969B" cx="193.499" cy="111.219" r="6.069"/>
<circle fill="#6E969B" cx="133.574" cy="111.219" r="6.069"/>
<path fill="#CCCCCC" stroke="#848484" stroke-width="12" stroke-miterlimit="10" d="M74.838,249.576v66.223
	c26.146,14.818,56.459,23.293,88.779,23.293s62.635-8.475,88.777-23.293v-66.223c0-22.104-18.166-40.02-40.578-40.02h-27.912
	c-1.547,0-2.801-1.236-2.801-2.765v-19.127h-34.975v19.127c0,1.526-1.254,2.765-2.802,2.765h-27.911
	C93.006,209.557,74.838,227.475,74.838,249.576z"/>
<path fill="#B4B3B3" d="M79.818,245.662c-1.562,15.811-0.268,68.422-0.268,68.422c27.848,10.352,16.334,6.729,36.051,13.209
	c0,0-16.662-15.908-16.542-57.369c0.154-53.145,22.374-55.232,22.374-55.232C94.52,212.814,81.38,229.852,79.818,245.662z"/>
<path fill="#CCCCCC" stroke="#848484" stroke-width="12" stroke-miterlimit="10" d="M74.633,104.507
	c0,48.93,39.666,88.595,88.596,88.595s88.595-39.665,88.595-88.595c0-48.93-39.664-88.596-88.595-88.596
	S74.633,55.576,74.633,104.507z M123.927,74.304h78.604c13.789,0,16.179,7.786,16.179,25.202l-1.628,52.484
	c-3.256,8.799-16.375,10.91-26.102,10.91h-55.5c-6.372,0-25.592,2.23-27.402-15.32l-3.243-43.073
	C105.126,89.638,105.682,74.304,123.927,74.304z"/>
<path fill="#B4B3B3" d="M165.855,192.561c0,0-23.855,1.729-48.626-24c-25.781-26.775-34.09-69.188-16.568-100.854
	c20.896-37.763,57.183-45.687,57.183-45.687c-37.63,0.787-80.584,33.015-80.584,81.945
	C77.259,152.895,116.925,192.561,165.855,192.561z"/>
<path fill="#CCCCCC" stroke="#848484" stroke-width="12" stroke-miterlimit="10" d="M124.345,202.039v-17.871
	c0-4.176,3.384-7.563,7.56-7.563h62.648c4.174,0,7.559,3.385,7.559,7.563v17.871c0,4.174-3.383,7.561-7.559,7.561h-62.648
	C127.73,209.6,124.345,206.213,124.345,202.039z"/>
<rect x="130.281" y="187.801" fill="#EAEAEA" width="65.836" height="10.605"/>
<g id="star">
	<polygon fill="#F7CB5F" points="34.897,159.186 45.101,160.668 37.718,167.863 39.46,178.029 30.335,173.229 21.209,178.029 
		22.952,167.863 15.568,160.668 25.773,159.186 30.335,149.941 	"/>
	<polygon fill="#F7CB5F" points="68.611,15.389 78.814,16.873 71.431,24.069 73.172,34.23 64.047,29.433 54.922,34.23 
		56.665,24.069 49.281,16.873 59.485,15.389 64.047,6.144 	"/>
	<polygon fill="#F0B04E" points="30.335,173.229 21.209,178.029 22.952,167.863 15.568,160.668 25.773,159.186 30.335,149.941 	"/>
	<polygon fill="#F0B04E" points="64.049,29.433 54.923,34.23 56.666,24.069 49.284,16.873 59.487,15.389 64.049,6.144 	"/>
</g>
<g>
	<path fill="#86B0B7" d="M143.027,99.483c-0.243-0.032-0.625-0.05-1.064-0.126c-0.225-0.03-0.462-0.082-0.723-0.129
		c-0.245-0.019-0.507-0.039-0.789-0.061c-0.536-0.046-1.07-0.108-1.712-0.142c-0.312-0.019-0.61-0.066-0.924-0.092
		c-0.325-0.004-0.646-0.021-0.964-0.044c-0.624-0.083-1.303-0.034-1.934-0.113c-0.663,0.027-1.296-0.057-1.954-0.034
		c-0.646-0.047-1.299,0.01-1.947-0.034c-0.647,0.046-1.299-0.006-1.945,0.043c-0.657-0.021-1.291,0.06-1.953,0.037
		c-0.629,0.078-1.308,0.031-1.931,0.112c-0.318,0.023-0.639,0.04-0.963,0.045c-0.313,0.025-0.614,0.07-0.924,0.091
		c-0.63,0.024-1.203,0.109-1.752,0.167c-0.281,0.022-0.538,0.059-0.799,0.071c-0.246,0.031-0.468,0.073-0.687,0.095
		c-0.422,0.061-0.804,0.078-1.05,0.108c-0.254,0.025-0.403,0.029-0.403,0.029s0.01-0.14,0.056-0.386
		c0.053-0.24,0.11-0.621,0.248-1.064c0.063-0.23,0.146-0.472,0.241-0.74c0.104-0.257,0.243-0.512,0.385-0.801
		c0.144-0.289,0.321-0.574,0.503-0.892c0.181-0.319,0.43-0.583,0.669-0.902c0.247-0.308,0.523-0.609,0.813-0.931
		c0.307-0.289,0.64-0.576,0.992-0.864c0.691-0.608,1.537-1.048,2.417-1.536c0.91-0.381,1.877-0.801,2.912-0.993
		c1.026-0.265,2.102-0.321,3.172-0.371c1.072,0.05,2.146,0.113,3.171,0.378c1.035,0.193,2.001,0.611,2.912,0.997
		c0.88,0.49,1.725,0.929,2.415,1.538c0.354,0.287,0.686,0.572,0.992,0.863c0.29,0.321,0.566,0.62,0.813,0.929
		c0.242,0.322,0.479,0.575,0.677,0.907c0.197,0.328,0.385,0.619,0.532,0.915c0.15,0.293,0.292,0.553,0.396,0.81
		c0.081,0.254,0.15,0.484,0.206,0.706c0.121,0.429,0.178,0.807,0.233,1.046c0.048,0.247,0.063,0.391,0.063,0.391
		S143.282,99.506,143.027,99.483z"/>
	<path fill="#86B0B7" d="M207.451,99.483c-0.244-0.032-0.626-0.05-1.064-0.126c-0.225-0.03-0.463-0.082-0.723-0.129
		c-0.244-0.019-0.508-0.039-0.789-0.061c-0.535-0.046-1.068-0.108-1.712-0.142c-0.312-0.019-0.61-0.066-0.925-0.092
		c-0.325-0.004-0.646-0.021-0.963-0.044c-0.625-0.083-1.305-0.034-1.936-0.113c-0.663,0.027-1.298-0.057-1.953-0.034
		c-0.646-0.047-1.301,0.01-1.947-0.034c-0.647,0.046-1.301-0.006-1.945,0.043c-0.656-0.021-1.291,0.06-1.952,0.037
		c-0.63,0.078-1.308,0.031-1.933,0.112c-0.316,0.023-0.637,0.04-0.963,0.045c-0.313,0.025-0.613,0.07-0.924,0.091
		c-0.63,0.024-1.203,0.109-1.752,0.167c-0.279,0.022-0.537,0.059-0.8,0.071c-0.246,0.031-0.468,0.073-0.687,0.095
		c-0.422,0.061-0.805,0.078-1.051,0.108c-0.254,0.025-0.402,0.029-0.402,0.029s0.011-0.14,0.056-0.386
		c0.054-0.24,0.11-0.621,0.248-1.064c0.063-0.23,0.146-0.472,0.24-0.74c0.104-0.257,0.243-0.512,0.385-0.801
		c0.146-0.289,0.319-0.574,0.503-0.892c0.182-0.319,0.432-0.583,0.669-0.902c0.247-0.308,0.522-0.609,0.812-0.931
		c0.309-0.289,0.642-0.576,0.994-0.864c0.69-0.608,1.537-1.048,2.416-1.536c0.912-0.381,1.877-0.801,2.914-0.993
		c1.024-0.265,2.101-0.321,3.172-0.371c1.072,0.05,2.146,0.113,3.17,0.378c1.035,0.193,2.002,0.611,2.912,0.997
		c0.879,0.49,1.725,0.929,2.414,1.538c0.354,0.287,0.686,0.572,0.991,0.863c0.289,0.321,0.566,0.62,0.813,0.929
		c0.242,0.322,0.479,0.575,0.678,0.907c0.197,0.328,0.385,0.619,0.532,0.915c0.149,0.293,0.29,0.553,0.396,0.81
		c0.081,0.254,0.151,0.484,0.205,0.706c0.121,0.429,0.178,0.807,0.233,1.046c0.049,0.247,0.063,0.391,0.063,0.391
		S207.703,99.506,207.451,99.483z"/>
</g>
<path fill="#A1C8D1" d="M145.367,162.9"/>
<path fill="#A1C8D1" d="M169.063,112.044v16.802c0,3.006-2.438,5.443-5.441,5.443l0,0c-3.006,0-5.443-2.437-5.443-5.443v-16.802
	H169.063z"/>
<path fill="#B4B3B3" d="M54.799,189.555"/>
<line fill="none" stroke="#848484" stroke-width="12" stroke-miterlimit="10" x1="163.617" y1="223.895" x2="163.617" y2="339.061"/>
</svg>
