<?xml version="1.0" encoding="utf-8"?>
<!-- Generator: Adobe Illustrator 16.0.0, SVG Export Plug-In . SVG Version: 6.00 Build 0)  -->
<!DOCTYPE svg PUBLIC "-//W3C//DTD SVG 1.1//EN" "http://www.w3.org/Graphics/SVG/1.1/DTD/svg11.dtd">
<svg version="1.1" id="圖層_1" xmlns="http://www.w3.org/2000/svg" xmlns:xlink="http://www.w3.org/1999/xlink" x="0px" y="0px"
	 width="330px" height="350px" viewBox="0 0 330 350" enable-background="new 0 0 330 350" xml:space="preserve">
<g>
	<g>
		<rect x="78.96" y="186.393" fill="#F7C899" width="26.616" height="29.807"/>
		<path fill="#F5B883" d="M78.962,189.902c0,0,11.195,7.127,26.615,5.477v-8.986H78.962V189.902z"/>
		<ellipse fill="#F5B883" cx="40.583" cy="140.17" rx="12.986" ry="14.818"/>
		<ellipse fill="#F5B883" cx="143.955" cy="140.17" rx="12.987" ry="14.818"/>
		<path fill="#F7C899" d="M143.902,111.87c0-21.823-15.968-37.794-51.633-37.794c-35.664,0-51.634,15.969-51.634,37.794
			c0,21.823-3.726,79.313,51.634,79.313C147.627,191.184,143.902,133.693,143.902,111.87z"/>
		<g>
			<g>
				<ellipse fill="#3B2519" cx="67.119" cy="136.623" rx="5.589" ry="6.122"/>
				<circle fill="#FFFFFF" cx="64.683" cy="133.919" r="1.67"/>
			</g>
			<path fill="#50362A" d="M58.179,121.45c2.642,1.322,6.887-4.488,16.601,0.566c1.771,0.923,2.827-7.883-7.584-7.883
				C58.179,114.133,56.581,120.654,58.179,121.45z"/>
			<g>
				<ellipse fill="#3B2519" cx="118.108" cy="136.623" rx="5.588" ry="6.122"/>
				<circle fill="#FFFFFF" cx="115.672" cy="133.919" r="1.67"/>
			</g>
			<path fill="#50362A" d="M126.36,121.45c-2.644,1.322-6.887-4.488-16.602,0.566c-1.77,0.923-2.827-7.883,7.586-7.883
				C126.36,114.133,127.956,120.654,126.36,121.45z"/>
		</g>
		<path fill="#F5B883" d="M92.269,158.152c-5.523,0-8.851-4.123-8.851-2.126c0,1.996,1.598,5.788,8.851,5.788
			s8.851-3.792,8.851-5.788C101.12,154.027,97.792,158.152,92.269,158.152z"/>
		<path fill="#F5B883" d="M92.269,176.506c-1.911,0-3.061-1.426-3.061-0.735s0.552,2.001,3.061,2.001s3.06-1.311,3.06-2.001
			S94.178,176.506,92.269,176.506z"/>
		<path fill="#ED905D" d="M92.269,171.421c-8.753,0-14.028-3.567-14.028-2.66c0,0.904,2.531,4.457,14.028,4.457
			s14.028-3.553,14.028-4.457C106.296,167.854,101.023,171.421,92.269,171.421z"/>
	</g>
	<path fill="#ED9127" d="M92.269,198.365v33.537H27.596C27.596,218.328,61.662,198.365,92.269,198.365z"/>
	<path fill="#ED9127" d="M92.269,198.365v33.537h64.673C156.942,218.328,122.876,198.365,92.269,198.365z"/>
	<path fill="#E66A26" d="M92.269,198.365c-6.51,0-13.177,0.914-19.639,2.467c0.045,0.057,7.168,9.246,19.639,9.246
		c11.547,0,19.225-7.871,20.338-9.082C105.926,199.338,99.015,198.365,92.269,198.365z"/>
	<path fill="#F7C899" d="M78.96,199.529c0,0,3.892,4.826,13.308,4.826c9.414,0,13.308-4.826,13.308-4.826
		S91.77,194.504,78.96,199.529z"/>
	<path fill="#50362A" d="M134.719,69.419c0,0-19.162-24.353-58.991-15.171C35.901,63.43,32.916,87.384,34.115,110.69
		c1.198,23.305,4.392,36.978,8.169,35.287c3.778-1.689,1.812-17.074,2.211-20.625c0.398-3.55,3.991-19.604,28.214-17.209
		c24.223,2.396,44.635-6.387,44.635-6.387s8.217,10.387,13.624,12.376c10.807,3.974,7.262,30.485,11.495,30.485
		C146.698,144.618,167.455,83.392,134.719,69.419z"/>
</g>
<g>
	<path fill="#432B1F" d="M204.926,181.33c5.664,16.195-3.213,45.994-3.213,45.994h51.313v-91.556l-56.314,11.068
		C196.713,146.834,199.807,166.691,204.926,181.33z"/>
	<path fill="#432B1F" d="M301.178,181.33c-5.662,16.195,3.213,45.994,3.213,45.994h-51.314v-91.556l56.314,11.068
		C309.391,146.834,306.297,166.691,301.178,181.33z"/>
	<g>
		<g>
			<rect x="241.123" y="189.238" fill="#F7C899" width="23.811" height="27.344"/>
			<path fill="#F5B883" d="M241.123,192.459c0,0,10.014,6.539,23.811,5.023v-8.244h-23.811V192.459z"/>
			<ellipse fill="#F5B883" cx="206.785" cy="146.834" rx="11.617" ry="13.593"/>
			<ellipse fill="#F5B883" cx="299.268" cy="146.834" rx="11.617" ry="13.593"/>
			<path fill="#F7C899" d="M299.221,120.875c0-20.021-14.287-34.671-46.193-34.671s-46.193,14.649-46.193,34.671
				c0,20.021-3.334,72.756,46.193,72.756C302.557,193.631,299.221,140.896,299.221,120.875z"/>
			<g>
				<g>
					<path fill="#3B2519" d="M230.527,137.966c2.764,0,5.002,2.513,5.002,5.616c0,3.098-2.238,5.614-5.002,5.614s-5-2.516-5-5.614
						C225.527,140.479,227.764,137.966,230.527,137.966z"/>
					<path fill="#FFFFFF" d="M228.348,139.566c0.824,0,1.494,0.688,1.494,1.535c0,0.846-0.67,1.534-1.494,1.534
						c-0.828,0-1.498-0.688-1.498-1.534C226.85,140.254,227.52,139.566,228.348,139.566z"/>
				</g>
				<path fill="#50362A" d="M222.529,131.474c2.365,0.926,6.162-3.156,14.85,0.395c1.586,0.649,2.529-5.537-6.785-5.537
					C222.529,126.331,221.1,130.912,222.529,131.474z"/>
				<g>
					<path fill="#3B2519" d="M276.145,137.966c2.76,0,5,2.513,5,5.616c0,3.098-2.24,5.614-5,5.614c-2.764,0-5-2.516-5-5.614
						C271.145,140.479,273.381,137.966,276.145,137.966z"/>
					<path fill="#FFFFFF" d="M273.965,139.566c0.826,0,1.494,0.688,1.494,1.535c0,0.846-0.668,1.534-1.494,1.534
						c-0.828,0-1.496-0.688-1.496-1.534C272.469,140.254,273.137,139.566,273.965,139.566z"/>
				</g>
				<path fill="#50362A" d="M283.527,131.474c-2.365,0.926-6.16-3.156-14.854,0.395c-1.584,0.649-2.529-5.537,6.785-5.537
					C283.527,126.331,284.955,130.912,283.527,131.474z"/>
			</g>
			<path fill="#F5B883" d="M253.025,163.333c-4.941,0-7.918-3.785-7.918-1.952c0,1.831,1.432,5.311,7.918,5.311
				c6.49,0,7.92-3.48,7.92-5.311C260.945,159.547,257.969,163.333,253.025,163.333z"/>
			<path fill="#F5B883" d="M253.025,180.17c-1.705,0-2.738-1.31-2.738-0.676c0,0.633,0.496,1.836,2.738,1.836
				c2.244,0,2.74-1.203,2.74-1.836C255.766,178.86,254.736,180.17,253.025,180.17z"/>
			<path fill="#ED905D" d="M253.025,175.506c-7.83,0-12.551-3.269-12.551-2.441s2.268,4.087,12.551,4.087
				c10.287,0,12.549-3.26,12.549-4.087S260.859,175.506,253.025,175.506z"/>
		</g>
		<ellipse fill="#F2A78B" cx="224.098" cy="161.526" rx="6.785" ry="6.959"/>
		<path fill="#F2A78B" d="M282.791,154.567c3.75,0,6.789,3.116,6.789,6.96c0,3.842-3.039,6.955-6.789,6.955
			c-3.746,0-6.785-3.113-6.785-6.955C276.006,157.683,279.045,154.567,282.791,154.567z"/>
	</g>
	<path fill="#664A71" d="M253.025,200.227v30.762h-52.145C200.881,218.535,225.645,200.227,253.025,200.227z"/>
	<path fill="#664A71" d="M253.025,200.227v30.762h52.146C305.172,218.535,280.412,200.227,253.025,200.227z"/>
	<path fill="#543B5E" d="M252.871,200.227c-5.891,0-11.92,0.832-17.768,2.26c0.041,0.051,6.488,8.482,17.768,8.482
		c10.449,0,17.395-7.221,18.4-8.33C265.229,201.115,258.975,200.227,252.871,200.227z"/>
	<path fill="#F7C899" d="M241.123,201.291c0,0,3.482,4.43,11.902,4.43c8.426,0,11.908-4.43,11.908-4.43
		S252.582,196.678,241.123,201.291z"/>
	<path fill="#50362A" d="M294.936,78.634c-30.002-36.624-87.152-21.974-99.771,28.567c-12.615,50.542,9.762,74.129,9.762,74.129
		c-8.582-29.786,11.432-60.578,28.574-60.945c17.146-0.365,44.291-10.255,44.291-10.255s4.557,23.773,19.287,32.505
		c11.072,6.561,6.867,25.85,4.008,38.695C311.803,177.151,343.512,93.65,294.936,78.634z"/>
</g>
<g>
	<path fill="#EEB07A" d="M217.207,310.094l-2.834-21.258c-0.605-4.541-3.674-8.369-7.971-9.949l-16.787-6.178
		c-2.016-0.674-3.375-2.559-3.375-4.682v-7.963l10.633-4.43c5.518-2.299,9.113-7.689,9.113-13.668v-2.469
		c4.088,0,7.402-3.314,7.402-7.402c0-4.092-3.314-7.406-7.402-7.406v-4.934c0-6.818-5.527-17.279-12.34-17.279h-44.425
		c-6.816,0-12.341,10.461-12.341,17.279v4.934c-4.089,0-7.404,3.314-7.404,7.406c0,4.088,3.315,7.402,7.404,7.402v2.469
		c0,5.979,3.594,11.369,9.113,13.668l10.632,4.43v7.963c0,2.123-1.36,4.008-3.375,4.682l-16.786,6.178
		c-4.298,1.58-7.366,5.408-7.971,9.949l-2.835,21.258c-0.591,4.438,2.861,8.383,7.339,8.383h76.874
		C214.348,318.477,217.801,314.531,217.207,310.094z"/>
	<path fill="#6D4439" d="M208.451,237.031h-4.936c0,0-2.35,6.506-2.469,14.807c-0.064,4.65,1.139,9.861,2.469,14.811h4.936
		c1.328-4.949,2.533-10.16,2.467-14.811C210.803,243.537,208.451,237.031,208.451,237.031z"/>
	<path fill="#5D342E" d="M139.349,237.031h-4.936c0,0-2.351,6.506-2.468,14.807c-0.065,4.65,1.139,9.861,2.468,14.811h4.936
		c1.329-4.949,2.533-10.16,2.469-14.811C141.7,243.537,139.349,237.031,139.349,237.031z"/>
	<g>
		<path fill="#E44244" d="M135.706,221.082h-13.631c-1.746,0-2.94,1.766-2.291,3.387l2.506,6.266
			c0.565,1.408,2.257,1.98,3.561,1.199l9.855-5.912V221.082z"/>
	</g>
	<g>
		<path fill="#EA514F" d="M135.706,221.082h-13.631c-1.746,0-2.94-1.762-2.291-3.383l2.506-6.266c0.565-1.41,2.257-1.98,3.561-1.199
			l9.855,5.912V221.082z"/>
	</g>
	<g>
		<path fill="#E44244" d="M207.16,221.082h13.631c1.746,0,2.939,1.766,2.291,3.387l-2.504,6.266c-0.564,1.408-2.26,1.98-3.563,1.199
			l-9.855-5.912V221.082z"/>
	</g>
	<g>
		<path fill="#EA514F" d="M207.16,221.082h13.631c1.746,0,2.939-1.762,2.291-3.383l-2.504-6.266c-0.564-1.41-2.26-1.98-3.563-1.199
			l-9.855,5.912V221.082z"/>
	</g>
	<g>
		<path fill="#DB9D70" d="M186.24,260.064l-29.615-6.582v14.545c0,1.773-0.983,3.34-2.474,4.213
			C174.852,275.861,186.24,260.064,186.24,260.064z"/>
	</g>
	<g>
		<path fill="#F7C48D" d="M136.88,224.689c-4.089,0-7.404,3.314-7.404,7.406c0,4.088,3.315,7.402,7.404,7.402v2.469
			c0,5.979,3.594,11.369,9.113,13.668l15.948,6.646c3.007,1.252,6.232,1.896,9.493,1.896l0,0c3.258,0,6.484-0.645,9.492-1.896
			l15.947-6.646c5.518-2.299,9.113-7.689,9.113-13.668v-2.469c4.088,0,7.402-3.314,7.402-7.402c0-4.092-3.314-7.406-7.402-7.406
			v-8.02c0-7.84-6.355-14.193-14.193-14.193h-40.721c-7.838,0-14.192,6.354-14.192,14.193V224.689z"/>
	</g>
	<g>
		<path fill="#613F33" d="M154.157,234.563L154.157,234.563c-1.357,0-2.468-1.111-2.468-2.467v-2.471
			c0-1.355,1.111-2.469,2.468-2.469l0,0c1.357,0,2.468,1.113,2.468,2.469v2.471C156.625,233.451,155.514,234.563,154.157,234.563z"
			/>
	</g>
	<g>
		<path fill="#613F33" d="M188.709,234.563L188.709,234.563c-1.355,0-2.469-1.111-2.469-2.467v-2.471
			c0-1.355,1.113-2.469,2.469-2.469l0,0c1.359,0,2.467,1.113,2.467,2.469v2.471C191.176,233.451,190.068,234.563,188.709,234.563z"
			/>
	</g>
	<g>
		<g>
			<path fill="#DB9D70" d="M171.434,251.906c-4.389,0-8.492-1.082-11.261-2.963c-1.126-0.768-1.42-2.303-0.651-3.428
				c0.766-1.125,2.302-1.418,3.428-0.654c1.941,1.322,5.112,2.109,8.485,2.109s6.543-0.787,8.484-2.109
				c1.127-0.768,2.662-0.475,3.426,0.654c0.77,1.125,0.477,2.66-0.65,3.428C179.926,250.824,175.82,251.906,171.434,251.906z"/>
		</g>
	</g>
	<path fill="#EEB07A" d="M136.88,224.689c-4.089,0-7.404,3.314-7.404,7.406c0,4.088,3.315,7.402,7.404,7.402v2.469
		c0,5.979,3.594,11.369,9.113,13.668l15.946,6.646c0.781,0.324,1.578,0.604,2.384,0.848c-7.047-5.156-11.738-9.662-14.487-12.611
		c-2-2.143-3.083-4.971-3.083-7.904V228.82c7.064-2.467,26.895-10.566,27.147-23.875l-3.083-3.086
		C170.817,201.859,169.479,219.549,136.88,224.689z"/>
	<g>
		<path fill="#E44244" d="M199.764,276.105l-8.881,14.211c-1.354,2.164-3.725,3.48-6.277,3.48h-26.345
			c-2.553,0-4.926-1.316-6.279-3.48l-8.88-14.211c-0.714-1.141-2.209-1.502-3.363-0.807l-8.106,4.863
			c-1.184,0.711-1.555,2.254-0.823,3.424l11.009,17.613h59.231l11.01-17.613c0.73-1.17,0.357-2.713-0.824-3.424l-8.107-4.863
			C201.973,274.604,200.479,274.965,199.764,276.105z"/>
	</g>
	<g>
		<rect x="141.817" y="301.199" fill="#EA514F" width="59.231" height="17.277"/>
	</g>
	<path fill="#6D4439" d="M183.773,175.329c-8.021,0-12.34,2.468-12.34,2.468s-4.319-2.468-12.341-2.468
		c-8.021,0-38.46,15.442-27.148,51.229c0,0,39.489-7.01,39.489-24.082c0,17.072,39.488,24.082,39.488,24.082
		C222.232,190.771,191.793,175.329,183.773,175.329z"/>
	<g>
		<path fill="#5D342E" d="M171.434,177.801v-0.004c0,0-4.319-2.468-12.341-2.468c-8.021,0-38.46,15.442-27.148,51.229
			c0,0,4.781-0.852,11.01-2.676C135.982,191.795,163.78,177.823,171.434,177.801z"/>
	</g>
	<g>
		<path fill="#E44244" d="M139.349,271.582h-4.936c-1.363,0-2.468-1.104-2.468-2.467l0,0c0-1.363,1.105-2.467,2.468-2.467h4.936
			c1.363,0,2.469,1.104,2.469,2.467l0,0C141.817,270.479,140.712,271.582,139.349,271.582z"/>
	</g>
	<g>
		<path fill="#5D342E" d="M139.349,271.582c0,0,4.319,7.404-2.468,17.275c-6.787-9.871-2.468-17.275-2.468-17.275"/>
	</g>
	<g>
		<path fill="#EA514F" d="M203.516,271.582h4.936c1.361,0,2.467-1.104,2.467-2.467l0,0c0-1.363-1.105-2.467-2.467-2.467h-4.936
			c-1.363,0-2.469,1.104-2.469,2.467l0,0C201.047,270.479,202.152,271.582,203.516,271.582z"/>
	</g>
	<g>
		<path fill="#6D4439" d="M203.516,271.582c0,0-4.32,7.404,2.469,17.275c6.785-9.871,2.467-17.275,2.467-17.275"/>
	</g>
</g>
</svg>
