<?xml version="1.0" encoding="utf-8"?>
<!-- Generator: Adobe Illustrator 16.0.0, SVG Export Plug-In . SVG Version: 6.00 Build 0)  -->
<!DOCTYPE svg PUBLIC "-//W3C//DTD SVG 1.1//EN" "http://www.w3.org/Graphics/SVG/1.1/DTD/svg11.dtd">
<svg version="1.1" id="圖層_1" xmlns="http://www.w3.org/2000/svg" xmlns:xlink="http://www.w3.org/1999/xlink" x="0px" y="0px"
	 width="330px" height="350px" viewBox="0 0 330 350" enable-background="new 0 0 330 350" xml:space="preserve">
<g>
	<g>
		<rect x="149.035" y="230.867" fill="#F7C899" width="31.926" height="35.754"/>
		<path fill="#F5B883" d="M149.037,235.078c0,0,13.428,8.549,31.925,6.568v-10.779h-31.925V235.078z"/>
		<ellipse fill="#F5B883" cx="103.001" cy="175.423" rx="15.577" ry="17.774"/>
		<ellipse fill="#F5B883" cx="226.997" cy="175.423" rx="15.577" ry="17.774"/>
		<path fill="#F7C899" d="M226.934,141.476c0-26.177-19.154-45.334-61.935-45.334c-42.779,0-61.935,19.155-61.935,45.334
			c0,26.177-4.47,95.137,61.935,95.137C231.401,236.613,226.934,167.653,226.934,141.476z"/>
		<g>
			<g>
				<path fill="#3B2519" d="M134.832,163.824c3.704,0,6.705,3.288,6.705,7.341c0,4.059-3.001,7.345-6.705,7.345
					c-3.703,0-6.704-3.286-6.704-7.345C128.128,167.112,131.129,163.824,134.832,163.824z"/>
				<circle fill="#FFFFFF" cx="131.909" cy="167.925" r="2.004"/>
			</g>
			<path fill="#50362A" d="M124.108,152.967c3.169,1.585,8.261-5.384,19.913,0.679c2.125,1.107,3.391-9.456-9.097-9.456
				C124.108,144.19,122.19,152.012,124.108,152.967z"/>
			<g>
				<path fill="#3B2519" d="M195.993,163.824c3.703,0,6.704,3.288,6.704,7.341c0,4.059-3.001,7.345-6.704,7.345
					c-3.702,0-6.703-3.286-6.703-7.345C189.29,167.112,192.291,163.824,195.993,163.824z"/>
				<circle fill="#FFFFFF" cx="193.071" cy="167.925" r="2.004"/>
			</g>
			<path fill="#50362A" d="M205.891,152.967c-3.17,1.585-8.261-5.384-19.914,0.679c-2.122,1.107-3.391-9.456,9.1-9.456
				C205.891,144.19,207.805,152.012,205.891,152.967z"/>
		</g>
		<path fill="#F5B883" d="M164.999,196.992c-6.625,0-10.616-4.945-10.616-2.551s1.917,6.943,10.616,6.943s10.615-4.549,10.615-6.943
			C175.614,192.045,171.622,196.992,164.999,196.992z"/>
		<path fill="#F5B883" d="M164.999,219.008c-2.292,0-3.672-1.711-3.672-0.883s0.662,2.4,3.672,2.4s3.67-1.572,3.67-2.4
			S167.289,219.008,164.999,219.008z"/>
		<path fill="#ED905D" d="M164.999,212.908c-10.5,0-16.827-4.279-16.827-3.191c0,1.086,3.036,5.348,16.827,5.348
			c13.79,0,16.826-4.262,16.826-5.348C181.824,208.629,175.5,212.908,164.999,212.908z"/>
	</g>
	<path fill="#ED9127" d="M164.999,245.229v40.229H87.423C87.423,269.174,128.285,245.229,164.999,245.229z"/>
	<path fill="#ED9127" d="M164.999,245.229v40.229h77.575C242.574,269.174,201.714,245.229,164.999,245.229z"/>
	<path fill="#E66A26" d="M164.999,245.229c-7.809,0-15.806,1.096-23.558,2.959c0.054,0.068,8.598,11.09,23.558,11.09
		c13.852,0,23.061-9.441,24.396-10.893C181.38,246.395,173.091,245.229,164.999,245.229z"/>
	<path fill="#F7C899" d="M149.035,246.625c0,0,4.668,5.789,15.963,5.789c11.292,0,15.962-5.789,15.962-5.789
		S164.4,240.598,149.035,246.625z"/>
	<path fill="#50362A" d="M215.918,90.556c0,0-22.985-29.211-70.759-18.198c-47.773,11.013-51.354,39.747-49.917,67.703
		c1.438,27.955,5.268,44.355,9.799,42.328c4.532-2.025,2.173-20.481,2.653-24.74c0.477-4.258,4.788-23.515,33.843-20.643
		c29.055,2.875,53.539-7.661,53.539-7.661s9.856,12.459,16.343,14.846c12.962,4.767,8.71,36.567,13.788,36.567
		C230.286,180.758,255.186,107.316,215.918,90.556z"/>
</g>
</svg>
