<?xml version="1.0" encoding="utf-8"?>
<!-- Generator: Adobe Illustrator 16.0.0, SVG Export Plug-In . SVG Version: 6.00 Build 0)  -->
<!DOCTYPE svg PUBLIC "-//W3C//DTD SVG 1.1//EN" "http://www.w3.org/Graphics/SVG/1.1/DTD/svg11.dtd">
<svg version="1.1" id="Layer_1" xmlns="http://www.w3.org/2000/svg" xmlns:xlink="http://www.w3.org/1999/xlink" x="0px" y="0px"
	 width="330px" height="350px" viewBox="0 0 330 350" enable-background="new 0 0 330 350" xml:space="preserve">
<path fill="#F0C419" d="M99.369,37.133l2.842-2.841c35.798-32.39,89.779-32.39,125.578,0l2.842,2.841
	c45.458,40.913,56.255,107.396,26.707,160.811L185.74,328.067c-9.092,15.91-31.82,15.91-40.912,0L72.662,197.941
	C43.114,144.528,53.911,78.045,99.369,37.133"/>
<path fill="#E57E25" d="M183.468,13.268c5.683,2.273,11.364,5.683,15.91,9.66l2.841,2.272
	c29.548,27.274,36.367,70.461,17.048,105.122l-44.322,79.553c-3.978,6.818-13.638,6.818-17.615,0l-44.321-79.553
	c-19.32-34.661-11.934-78.416,17.615-104.555l2.841-2.841C147.101,10.994,165.852,7.017,183.468,13.268"/>
<path fill="#AC5F1C" d="M165.284,10.426c1.705,0,2.841,0,4.545,0.568c1.705,0.568,3.41,1.705,5.114,3.41l2.842,2.273
	c17.615,15.91,22.161,41.48,10.229,62.504l-17.616,36.936c-1.704,3.41-6.249,3.41-7.955,0l-19.888-36.936
	c-11.365-21.023-7.388-46.594,10.229-62.504l2.841-2.842C158.465,11.563,161.875,10.426,165.284,10.426"/>
</svg>
