<?xml version="1.0" encoding="utf-8"?>
<!-- Generator: Adobe Illustrator 16.0.0, SVG Export Plug-In . SVG Version: 6.00 Build 0)  -->
<!DOCTYPE svg PUBLIC "-//W3C//DTD SVG 1.1//EN" "http://www.w3.org/Graphics/SVG/1.1/DTD/svg11.dtd">
<svg version="1.1" id="圖層_1" xmlns="http://www.w3.org/2000/svg" xmlns:xlink="http://www.w3.org/1999/xlink" x="0px" y="0px"
	 width="330px" height="350px" viewBox="0 0 330 350" enable-background="new 0 0 330 350" xml:space="preserve">
<g>
	<g>
		<path fill="#808081" d="M76.473,104.703L76.473,104.703c-8.495,0-15.384,6.888-15.384,15.384v29.503
			c0,8.495,6.889,15.384,15.384,15.384h4.375L76.473,104.703z"/>
		<path fill="#808081" d="M246.971,104.703L246.971,104.703c8.496,0,15.383,6.888,15.383,15.384v29.503
			c0,8.495-6.887,15.384-15.383,15.384h-4.375L246.971,104.703z"/>
	</g>
	<path fill="#CCCCCC" d="M242.598,272.553v62.256H79.464v-62.256c0-13.881,2.888-26.846,7.896-37.895
		c1.653-3.639,3.534-7.072,5.617-10.254c4.009-6.121,8.765-11.344,14.082-15.406c7.967-6.078,17.18-9.547,26.995-9.547h53.953
		c9.884,0,19.147,3.512,27.142,9.656c5.307,4.08,10.049,9.322,14.039,15.451c2.076,3.196,3.951,6.641,5.596,10.284
		C239.742,245.852,242.598,258.756,242.598,272.553z"/>
	<g>
		<path fill="#B4B3B3" d="M166.984,199.449h-32.927c-30.149,0-54.589,32.729-54.589,73.1v62.26h32.928v-62.26
			C112.395,232.178,136.836,199.449,166.984,199.449z"/>
		<path fill="#B4B3B3" d="M215.146,209.107c-14.918,15.483-33.65,24.703-53.989,24.703c-20.383,0-39.158-9.261-54.098-24.813
			c7.967-6.078,17.18-9.547,26.995-9.547h53.951C197.891,199.451,207.156,202.963,215.146,209.107z"/>
	</g>
	<path fill="#CCCCCC" d="M250.586,128.262v0.529c0,49.07-39.77,88.85-88.841,88.85c-4.545,0-9.01-0.343-13.371-1
		c-13.083-1.978-21.723-9.355-32.28-16.384c-23.92-15.92-43.19-40.578-43.19-71.466c0-0.198,0-0.397,0.007-0.594
		c0.019-3.233,0.21-6.422,0.566-9.567c4.86-42.724,40.033-76.252,83.486-78.549c1.581-0.09,3.176-0.134,4.782-0.134
		c1.608,0,3.203,0.044,4.784,0.134c43.478,2.296,78.656,35.862,83.49,78.613C250.377,121.838,250.568,125.027,250.586,128.262z"/>
	<path fill="#B4B3B3" d="M106.05,128.794c0-49.067,25.016-88.845,55.873-88.845c-49.066,0-88.844,39.776-88.844,88.845
		c0,49.067,39.776,88.843,88.844,88.843C131.067,217.637,106.05,177.861,106.05,128.794z"/>
	<path fill="#BEE3F3" d="M201.928,93.938h-80.364c-16.044,0-29.051,13.007-29.051,29.051v17.061
		c0,27.502,22.295,49.796,49.796,49.796h38.875c27.5,0,49.795-22.294,49.795-49.796v-17.061
		C230.979,106.945,217.973,93.938,201.928,93.938z"/>
	<path fill="#A1C8D1" d="M125.038,140.05v-17.062c0-16.043,13.006-29.05,29.05-29.05h-32.524c-16.045,0-29.05,13.007-29.05,29.05
		v17.062c0,27.501,22.295,49.794,49.796,49.794h32.525C147.333,189.844,125.038,167.551,125.038,140.05z"/>
	<path fill="#808081" d="M234.783,234.844c-20.041,20.504-43.736,31.885-68.876,33.162v14.059c0,3.521-2.128,6.361-4.749,6.361
		h-24.095v46.383h-9.499v-52.744c0-3.51,2.121-6.358,4.75-6.358h24.095v-7.699c-25.228-1.276-48.988-12.733-69.048-33.348
		c1.653-3.64,3.534-7.072,5.617-10.255c19.681,20.285,43.23,31.003,68.18,31.003c24.867,0,48.365-10.658,68.027-30.849
		C231.262,227.754,233.137,231.199,234.783,234.844z"/>
	<g>
		<rect x="221.705" y="284.609" fill="#EB6A4F" width="20.895" height="27.979"/>
		<rect x="79.468" y="284.609" fill="#EB6A4F" width="20.896" height="27.979"/>
	</g>
	<path fill="#86B0B7" d="M221.467,172.194h-29.006c-1.586,0-2.871-1.285-2.871-2.871c0-1.584,1.283-2.87,2.871-2.87h29.006
		c1.582,0,2.869,1.285,2.869,2.87C224.336,170.909,223.051,172.194,221.467,172.194z"/>
	<g>
		<polygon fill="#F1C173" points="45.366,38.104 52.788,53.144 69.385,55.554 57.375,67.261 60.209,83.791 45.366,75.987 
			30.522,83.791 33.356,67.261 21.347,55.554 37.944,53.144 		"/>
		<path fill="#F1C173" d="M60.148,35.644c0,0,0.181-0.167,0.519-0.479c0.4-0.382,0.896-0.784,1.542-1.317
			c0.654-0.495,1.427-1.128,2.352-1.75c0.461-0.315,0.943-0.666,1.466-1.003c0.525-0.33,1.077-0.677,1.653-1.039
			c0.568-0.374,1.193-0.698,1.824-1.06c0.639-0.346,1.274-0.746,1.973-1.073c1.377-0.683,2.813-1.421,4.357-2.044
			c0.769-0.316,1.527-0.682,2.333-0.966c0.8-0.288,1.61-0.582,2.426-0.875c0.409-0.144,0.811-0.303,1.228-0.43
			c0.418-0.122,0.838-0.245,1.257-0.368c0.836-0.246,1.677-0.491,2.516-0.736c1.692-0.43,3.401-0.78,5.061-1.158
			c1.682-0.261,3.337-0.519,4.938-0.768c1.605-0.141,3.157-0.276,4.629-0.406c0.729-0.082,1.446-0.082,2.14-0.094
			c0.689-0.011,1.357-0.021,1.998-0.032c1.278-0.013,2.44-0.074,3.478,0.018c1.033,0.055,1.933,0.103,2.675,0.143
			c1.476,0.079,2.318,0.126,2.318,0.126s-0.839,0.104-2.306,0.286c-0.73,0.09-1.618,0.201-2.635,0.326
			c-1.017,0.091-2.149,0.355-3.382,0.588c-0.615,0.121-1.257,0.247-1.919,0.377c-0.662,0.128-1.346,0.25-2.035,0.457
			c-1.378,0.373-2.83,0.767-4.332,1.174c-1.464,0.502-2.975,1.024-4.512,1.552c-1.493,0.638-3.014,1.244-4.5,1.916
			c-0.729,0.363-1.459,0.727-2.186,1.088l-1.082,0.539c-0.357,0.182-0.699,0.398-1.045,0.592c-0.689,0.398-1.372,0.792-2.048,1.182
			c-0.675,0.382-1.3,0.839-1.934,1.241c-1.275,0.797-2.425,1.685-3.522,2.494c-0.559,0.393-1.047,0.846-1.547,1.242
			c-0.488,0.411-0.979,0.784-1.405,1.192c-0.434,0.396-0.85,0.773-1.245,1.134c-0.39,0.363-0.732,0.728-1.068,1.057
			c-0.682,0.655-1.193,1.271-1.644,1.751c-0.411,0.492-0.753,0.888-0.886,1.088c-0.199,0.264-0.305,0.405-0.305,0.405l-0.042,0.055
			c-1.599,2.119-4.612,2.541-6.73,0.943c-2.118-1.598-2.541-4.611-0.943-6.729C59.743,36.054,59.948,35.831,60.148,35.644z"/>
		<path fill="#F1C173" d="M76.972,42.964c0.018-0.01,0.052-0.011,0.327-0.121c0.122-0.044,0.295-0.115,0.454-0.167
			c0.155-0.048,0.334-0.104,0.533-0.167c0.79-0.235,1.888-0.531,3.197-0.77c0.651-0.136,1.364-0.23,2.104-0.34
			c0.748-0.089,1.532-0.175,2.343-0.229c0.813-0.039,1.64-0.101,2.488-0.08c0.419,0.004,0.843,0.006,1.268,0.009
			c0.423,0.025,0.85,0.052,1.274,0.078c0.844,0.032,1.687,0.161,2.504,0.261c0.816,0.081,1.613,0.287,2.375,0.422
			c0.761,0.126,1.482,0.374,2.162,0.545c0.681,0.167,1.308,0.396,1.881,0.605c0.572,0.214,1.098,0.375,1.547,0.58
			c0.447,0.201,0.836,0.378,1.156,0.522c0.631,0.287,0.991,0.452,0.991,0.452s-0.395-0.02-1.092-0.054
			c-0.342-0.016-0.759-0.035-1.235-0.056c-0.473-0.023-1.017,0.021-1.598,0.034c-0.581,0.016-1.203,0.033-1.862,0.126
			c-0.656,0.088-1.339,0.115-2.042,0.271c-0.7,0.147-1.416,0.23-2.132,0.441c-0.716,0.19-1.434,0.354-2.136,0.605l-1.048,0.344
			c-0.34,0.134-0.68,0.268-1.016,0.401c-0.671,0.248-1.311,0.564-1.923,0.843c-0.609,0.293-1.186,0.602-1.722,0.895
			c-0.529,0.312-1.029,0.591-1.466,0.886c-0.89,0.562-1.566,1.084-2.006,1.437c-0.106,0.09-0.2,0.169-0.283,0.237
			c-0.077,0.067-0.101,0.108-0.142,0.147c-0.047,0.061-0.179,0.161-0.164,0.151c-2.294,1.309-5.215,0.512-6.525-1.783
			C73.879,47.196,74.678,44.273,76.972,42.964z"/>
	</g>
	<rect x="146.83" y="303.035" fill="#EB6A4F" width="11.083" height="14.84"/>
	<circle fill="#6E969B" cx="185.965" cy="169.322" r="8.407"/>
	<path fill="#808081" d="M250.586,128.262c-0.018-3.233-0.209-6.422-0.566-9.567l-14.545-0.051
		c-2.143-16.61-16.363-29.488-33.547-29.488h-35.398V40.083c-1.582-0.09-3.177-0.135-4.784-0.135s-3.202,0.045-4.783,0.135v49.072
		h-35.398c-17.195,0-31.426,12.897-33.55,29.526l-14.537-0.05c-0.357,3.144-0.549,6.333-0.568,9.566l14.821,0.051v11.802
		c0,30.096,24.484,54.58,54.58,54.58h38.874c30.098,0,54.58-24.484,54.58-54.58v-11.839L250.586,128.262z M226.195,140.05
		c0,24.821-20.193,45.013-45.014,45.013h-38.874c-24.821,0-45.013-20.192-45.013-45.013v-16.451l0.003-0.725
		c0.062-13.327,10.922-24.152,24.265-24.152h80.367c13.379,0,24.266,10.886,24.266,24.267v1.083l-0.019,4.107h0.019V140.05
		L226.195,140.05L226.195,140.05L226.195,140.05z"/>
	<path fill="#6E969B" d="M133.224,147.677c-2.641,0-4.783-2.142-4.783-4.784v-7.651c0-2.641,2.143-4.783,4.783-4.783
		c2.643,0,4.783,2.143,4.783,4.783v7.651C138.007,145.535,135.867,147.677,133.224,147.677z"/>
	<g>
		<path fill="#86B0B7" d="M179.072,123.125c0,0,0.012-0.127,0.055-0.345c0.051-0.211,0.1-0.545,0.207-0.923
			c0.049-0.196,0.109-0.398,0.182-0.622c0.092-0.228,0.217-0.456,0.349-0.714c0.131-0.26,0.297-0.518,0.469-0.807
			c0.176-0.293,0.385-0.516,0.599-0.799c0.217-0.273,0.461-0.536,0.717-0.819c0.27-0.256,0.563-0.508,0.875-0.761
			c0.606-0.536,1.352-0.925,2.129-1.356c0.801-0.339,1.652-0.708,2.563-0.878c0.904-0.234,1.851-0.29,2.798-0.333
			c0.942,0.043,1.891,0.094,2.795,0.327c0.912,0.169,1.764,0.539,2.565,0.875c0.774,0.43,1.521,0.817,2.131,1.354
			c0.312,0.254,0.604,0.506,0.875,0.761c0.256,0.284,0.498,0.549,0.718,0.821c0.209,0.281,0.428,0.513,0.59,0.794
			c0.16,0.281,0.315,0.532,0.44,0.787c0.127,0.256,0.248,0.479,0.34,0.706c0.084,0.236,0.158,0.449,0.214,0.651
			c0.12,0.391,0.172,0.728,0.219,0.938c0.039,0.218,0.049,0.342,0.049,0.342s-0.133-0.004-0.355-0.026
			c-0.217-0.028-0.555-0.042-0.926-0.096c-0.193-0.019-0.389-0.055-0.605-0.083c-0.229-0.012-0.457-0.043-0.705-0.062
			c-0.481-0.053-0.987-0.127-1.543-0.149c-0.272-0.019-0.539-0.058-0.813-0.081c-0.287-0.004-0.569-0.019-0.851-0.039
			c-0.549-0.073-1.146-0.03-1.7-0.099c-0.587,0.02-1.146-0.051-1.724-0.032c-0.567-0.043-1.143,0.002-1.713-0.039
			c-0.572,0.039-1.147-0.011-1.717,0.031c-0.58-0.02-1.139,0.054-1.725,0.03c-0.555,0.069-1.152,0.026-1.703,0.099
			c-0.281,0.021-0.563,0.036-0.85,0.04c-0.277,0.023-0.541,0.064-0.814,0.082c-0.566,0.03-1.037,0.083-1.51,0.125
			c-0.248,0.019-0.48,0.037-0.695,0.052c-0.229,0.042-0.438,0.088-0.637,0.114c-0.385,0.068-0.723,0.084-0.938,0.111
			C179.199,123.125,179.072,123.125,179.072,123.125z"/>
		<path fill="#86B0B7" d="M122.289,123.125c0,0,0.013-0.127,0.056-0.345c0.049-0.211,0.099-0.545,0.206-0.923
			c0.047-0.196,0.109-0.398,0.181-0.622c0.093-0.228,0.217-0.456,0.349-0.714c0.131-0.26,0.296-0.518,0.469-0.807
			c0.176-0.293,0.385-0.516,0.598-0.799c0.217-0.273,0.461-0.536,0.716-0.819c0.271-0.256,0.563-0.508,0.875-0.761
			c0.608-0.536,1.354-0.925,2.128-1.356c0.803-0.339,1.653-0.708,2.565-0.878c0.903-0.234,1.851-0.29,2.795-0.333
			c0.945,0.043,1.893,0.094,2.797,0.327c0.912,0.169,1.765,0.539,2.567,0.875c0.775,0.43,1.521,0.817,2.131,1.354
			c0.311,0.254,0.604,0.506,0.875,0.761c0.254,0.284,0.497,0.549,0.715,0.821c0.211,0.281,0.431,0.513,0.59,0.794
			c0.161,0.281,0.316,0.532,0.443,0.787c0.125,0.256,0.247,0.479,0.339,0.706c0.083,0.236,0.157,0.449,0.212,0.651
			c0.122,0.391,0.172,0.728,0.219,0.938c0.04,0.218,0.05,0.342,0.05,0.342s-0.133-0.004-0.357-0.026
			c-0.215-0.028-0.552-0.042-0.924-0.096c-0.193-0.019-0.389-0.055-0.605-0.083c-0.23-0.012-0.457-0.043-0.704-0.062
			c-0.485-0.053-0.988-0.127-1.545-0.149c-0.273-0.019-0.538-0.058-0.814-0.081c-0.287-0.004-0.568-0.019-0.85-0.039
			c-0.55-0.073-1.147-0.03-1.702-0.099c-0.582,0.02-1.143-0.051-1.72-0.032c-0.569-0.043-1.145,0.002-1.716-0.039
			c-0.57,0.039-1.146-0.011-1.716,0.031c-0.579-0.02-1.138,0.054-1.724,0.03c-0.555,0.069-1.153,0.026-1.704,0.099
			c-0.28,0.021-0.562,0.036-0.85,0.04c-0.277,0.023-0.54,0.064-0.814,0.082c-0.565,0.03-1.036,0.083-1.509,0.125
			c-0.248,0.019-0.479,0.037-0.695,0.052c-0.229,0.042-0.438,0.088-0.637,0.114c-0.386,0.068-0.724,0.084-0.938,0.111
			C122.417,123.125,122.289,123.125,122.289,123.125z"/>
	</g>
	<path fill="#6E969B" d="M190.008,147.677c-2.641,0-4.781-2.142-4.781-4.784v-7.651c0-2.641,2.142-4.783,4.781-4.783
		c2.643,0,4.783,2.143,4.783,4.783v7.651C194.791,145.535,192.65,147.677,190.008,147.677z"/>
	<path fill="#A1C8D1" d="M168.951,128.228v22.641c0,4.051-3.285,7.335-7.333,7.335l0,0c-4.051,0-7.335-3.284-7.335-7.335v-22.641
		H168.951z"/>
	<g>
		<polygon fill="#EEB025" points="205.398,291.26 200.947,287.604 196.498,291.26 196.498,278.59 205.398,278.59 		"/>
		<circle fill="#F1CC21" cx="200.947" cy="274.594" r="8.029"/>
		<path fill="#EEB025" d="M200.947,269.367c2.889,0,5.229,2.34,5.229,5.227s-2.34,5.227-5.229,5.227
			c-2.885,0-5.227-2.34-5.227-5.227S198.063,269.367,200.947,269.367z"/>
		<polygon fill="#FDFDFE" points="200.947,269.689 202.047,273.078 205.625,273.078 202.729,275.182 203.846,278.59 
			200.947,276.488 198.051,278.59 199.168,275.182 196.271,273.078 199.85,273.078 		"/>
	</g>
</g>
</svg>
