<?xml version="1.0" encoding="utf-8"?>
<!-- Generator: Adobe Illustrator 16.0.0, SVG Export Plug-In . SVG Version: 6.00 Build 0)  -->
<!DOCTYPE svg PUBLIC "-//W3C//DTD SVG 1.1//EN" "http://www.w3.org/Graphics/SVG/1.1/DTD/svg11.dtd">
<svg version="1.1" id="Capa_1" xmlns="http://www.w3.org/2000/svg" xmlns:xlink="http://www.w3.org/1999/xlink" x="0px" y="0px"
	 width="595.279px" height="841.89px" viewBox="0 0 595.279 841.89" enable-background="new 0 0 595.279 841.89"
	 xml:space="preserve">
<g>
	<g>
		<circle fill="#F3D55B" cx="109.135" cy="659.057" r="9.921"/>
		<circle fill="#F3D55B" cx="59.528" cy="381.26" r="9.921"/>
		<circle fill="#F3D55B" cx="257.954" cy="371.338" r="9.921"/>
		<circle fill="#F3D55B" cx="476.224" cy="182.833" r="9.921"/>
		<circle fill="#F3D55B" cx="525.83" cy="381.26" r="9.921"/>
	</g>
	<circle fill="#8697CB" cx="525.83" cy="540.001" r="39.686"/>
	<circle fill="#8697CB" cx="399.552" cy="668.978" r="39.686"/>
	<circle fill="#8697CB" cx="248.033" cy="510.238" r="39.686"/>
	<circle fill="#8697CB" cx="371.494" cy="381.26" r="49.607"/>
	
		<line fill="none" stroke="#8697CB" stroke-width="2" stroke-linecap="round" stroke-miterlimit="10" x1="340.322" y1="419.526" x2="276.805" y2="483.042"/>
	
		<line fill="none" stroke="#8697CB" stroke-width="2" stroke-linecap="round" stroke-miterlimit="10" x1="496.553" y1="513.421" x2="402.657" y2="419.526"/>
	
		<line fill="none" stroke="#8697CB" stroke-width="2" stroke-linecap="round" stroke-miterlimit="10" x1="427.619" y1="640.921" x2="499.251" y2="569.279"/>
	<polyline fill="none" stroke="#8697CB" stroke-width="2" stroke-linecap="round" stroke-miterlimit="10" points="272.122,541.548 
		371.494,640.921 371.494,640.921 	"/>
	<circle fill="#8697CB" cx="248.033" cy="222.518" r="29.764"/>
	<circle fill="#8697CB" cx="59.528" cy="182.833" r="29.764"/>
	
		<line fill="none" stroke="#8697CB" stroke-width="2" stroke-linecap="round" stroke-miterlimit="10" x1="367.089" y1="351.496" x2="267.876" y2="242.361"/>
	
		<line fill="none" stroke="#8697CB" stroke-width="2" stroke-linecap="round" stroke-miterlimit="10" x1="218.27" y1="212.597" x2="89.292" y2="182.833"/>
	<circle fill="#F3D55B" cx="248.033" cy="510.237" r="25.657"/>
	<circle fill="#F3D55B" cx="399.552" cy="668.978" r="25.656"/>
	<circle fill="#F3D55B" cx="525.83" cy="540.001" r="18.643"/>
	<circle fill="#F3D55B" cx="371.494" cy="381.26" r="28.563"/>
	<circle fill="#F3D55B" cx="248.033" cy="222.518" r="9.921"/>
	<circle fill="#F3D55B" cx="59.528" cy="182.833" r="9.921"/>
</g>
</svg>
