<?xml version="1.0" encoding="utf-8"?>
<!-- Generator: Adobe Illustrator 16.0.0, SVG Export Plug-In . SVG Version: 6.00 Build 0)  -->
<!DOCTYPE svg PUBLIC "-//W3C//DTD SVG 1.1//EN" "http://www.w3.org/Graphics/SVG/1.1/DTD/svg11.dtd">
<svg version="1.1" id="Capa_1" xmlns="http://www.w3.org/2000/svg" xmlns:xlink="http://www.w3.org/1999/xlink" x="0px" y="0px"
	 width="841.891px" height="595.281px" viewBox="0 0 841.891 595.281" enable-background="new 0 0 841.891 595.281"
	 xml:space="preserve">
<g>
	<path fill="#B6B8BE" d="M288.096,476.645l36.64,5.234c6.656-10.118,18.106-16.816,31.1-16.816V139.519
		c0-3.754,0.063-7.462,0.186-11.124c-0.095,0.472-0.156,0.954-0.177,1.445c-3.408,84.167-46.02,156.344-83.721,220.043V458.23
		C272.125,467.487,278.932,475.335,288.096,476.645z"/>
	<path fill="#B6B8BE" d="M216.317,520.871c0,2.62,1.092,5.014,2.871,6.718c-1.779-1.703-2.871-4.099-2.871-6.723V520.871z"/>
	<path fill="#FF4F19" d="M324.736,481.88l-36.64-5.234c-9.164-1.31-15.972-9.158-15.972-18.415V349.884l0,0
		c-0.078,0.132-0.158,0.267-0.236,0.399c-29.82,50.384-55.571,93.902-55.571,133.383v37.201c0,2.623,1.092,5.019,2.871,6.723
		c1.383,1.325,3.182,2.231,5.204,2.501l94.238,12.563v-40.386C318.631,494.745,320.882,487.739,324.736,481.88z"/>
	<path fill="#B6B8BE" d="M625.573,520.871v-0.004c0,2.623-1.092,5.019-2.871,6.723C624.48,525.885,625.573,523.491,625.573,520.871z
		"/>
	<path fill="#B6B8BE" d="M486.053,465.063c12.994,0,24.444,6.698,31.101,16.816l36.64-5.234c9.164-1.31,15.972-9.158,15.972-18.415
		V349.884c-37.702-63.699-80.312-135.876-83.721-220.043c-0.02-0.491-0.083-0.974-0.177-1.445c0.123,3.662,0.185,7.37,0.185,11.124
		L486.053,465.063L486.053,465.063z"/>
	<path fill="#FF4F19" d="M570.001,350.282c-0.077-0.133-0.157-0.268-0.235-0.4l0,0v108.348c0,9.257-6.808,17.105-15.972,18.415
		l-36.64,5.234c3.854,5.86,6.104,12.866,6.104,20.39v40.386l94.239-12.564c2.023-0.271,3.82-1.177,5.204-2.501
		c1.779-1.704,2.871-4.099,2.871-6.723v-37.2C625.573,444.185,599.821,400.667,570.001,350.282z"/>
	<path fill="#E3E6E9" d="M355.836,465.063c6.775,0,13.127,1.827,18.603,5.004V139.519v-15.074c0-2.253,1.022-4.429,2.873-6.123
		c11.127-10.172,27.033-16.008,43.634-16.008s32.507,5.836,43.634,16.01c1.851,1.693,2.872,3.869,2.872,6.122v15.073v330.548
		c5.477-3.177,11.828-5.004,18.603-5.004V139.519c0-3.754-0.063-7.462-0.185-11.124C483.391,54.454,456.307,0,420.945,0
		s-62.446,54.454-64.924,128.396c-0.122,3.662-0.186,7.37-0.186,11.124V465.063z"/>
	<path fill="#D5D9DE" d="M458.15,148.82h-74.41c-6.426,0-9.302-4.165-9.302-9.301v330.548c8.515,4.938,14.907,13.145,17.426,22.899
		h19.779V381.351c0-5.137,4.16-9.301,9.302-9.301s9.301,4.164,9.301,9.301v111.615h19.779c2.52-9.755,8.911-17.962,17.426-22.899
		V139.519C467.451,144.655,464.576,148.82,458.15,148.82z"/>
	<path fill="#5C546A" d="M450.025,492.967h-19.779v65.109h18.603v-55.808C448.848,499.056,449.259,495.941,450.025,492.967z"/>
	<path fill="#5C546A" d="M391.863,492.967c0.769,2.975,1.177,6.09,1.177,9.302v55.808h18.603v-65.109H391.863z"/>
	<path fill="#888693" d="M391.863,492.967c-2.52-9.755-8.91-17.962-17.426-22.899c-5.476-3.177-11.827-5.004-18.603-5.004
		c-12.994,0-24.443,6.698-31.1,16.816c-3.854,5.859-6.104,12.865-6.104,20.389v40.386v15.422h46.507h18.603h9.301v-55.808
		C393.041,499.056,392.632,495.941,391.863,492.967z"/>
	<path fill="#E5001E" d="M430.246,381.351c0-5.137-4.159-9.301-9.301-9.301s-9.302,4.164-9.302,9.301v111.615v65.109v27.903
		c0,5.137,4.16,9.302,9.302,9.302s9.301-4.165,9.301-9.302v-27.903v-65.109V381.351z"/>
	<path fill="#5C546A" d="M383.74,148.82h74.41c6.426,0,9.301-4.165,9.301-9.301v-15.074c0-2.253-1.021-4.429-2.872-6.123
		c-11.127-10.172-27.034-16.008-43.634-16.008s-32.507,5.836-43.634,16.01c-1.851,1.693-2.873,3.869-2.873,6.122v15.073
		C374.438,144.655,377.312,148.82,383.74,148.82z"/>
	<path fill="#5C546A" d="M365.137,558.076h-46.507v27.903c0,5.137,4.16,9.302,9.302,9.302h55.808c5.141,0,9.301-4.165,9.301-9.302
		v-27.903h-9.301H365.137z"/>
	<path fill="#888693" d="M523.259,502.268c0-7.523-2.251-14.529-6.104-20.389c-6.656-10.118-18.106-16.816-31.101-16.816
		c-6.774,0-13.126,1.827-18.603,5.004c-8.514,4.938-14.906,13.145-17.426,22.899c-0.769,2.975-1.177,6.09-1.177,9.302v55.808h9.302
		h18.603h46.506v-15.421V502.268z"/>
	<path fill="#5C546A" d="M458.15,558.076h-9.302v27.903c0,5.137,4.16,9.302,9.302,9.302h55.808c5.142,0,9.301-4.165,9.301-9.302
		v-27.903h-46.506H458.15z"/>
</g>
</svg>
