<?xml version="1.0" encoding="utf-8"?>
<!-- Generator: Adobe Illustrator 16.0.0, SVG Export Plug-In . SVG Version: 6.00 Build 0)  -->
<!DOCTYPE svg PUBLIC "-//W3C//DTD SVG 1.1//EN" "http://www.w3.org/Graphics/SVG/1.1/DTD/svg11.dtd">
<svg version="1.1" id="圖層_1" xmlns="http://www.w3.org/2000/svg" xmlns:xlink="http://www.w3.org/1999/xlink" x="0px" y="0px"
	 width="595.28px" height="841.89px" viewBox="0 0 595.28 841.89" enable-background="new 0 0 595.28 841.89" xml:space="preserve">
<polygon fill="none" stroke="#87D0EE" stroke-width="5" stroke-miterlimit="10" points="47.576,832.042 18.229,781.211 
	47.576,730.38 106.271,730.38 135.618,781.211 106.271,832.042 "/>
<line fill="none" stroke="#87D0EE" stroke-width="5" stroke-miterlimit="10" x1="76.923" y1="730.38" x2="76.923" y2="623.335"/>
<polygon fill="none" stroke="#87D0EE" stroke-width="5" stroke-miterlimit="10" points="57.383,623.335 34.156,583.104 
	57.383,542.874 103.837,542.874 127.063,583.104 103.837,623.335 "/>
<polygon fill="none" stroke="#87D0EE" stroke-width="5" stroke-miterlimit="10" points="57.383,623.335 34.156,583.104 
	57.383,542.874 103.836,542.874 127.063,583.104 103.836,623.335 "/>
<line fill="none" stroke="#87D0EE" stroke-width="5" stroke-miterlimit="10" x1="113.276" y1="559.225" x2="183.083" y2="489.418"/>
<polygon fill="none" stroke="#87D0EE" stroke-width="5" stroke-miterlimit="10" points="271.626,489.405 227.355,514.966 
	183.083,489.405 183.083,438.284 227.355,412.725 271.626,438.284 "/>
<polygon fill="none" stroke="#87D0EE" stroke-width="5" stroke-miterlimit="10" points="200.317,351.335 173.279,304.504 
	200.317,257.673 254.393,257.673 281.431,304.504 254.393,351.335 "/>
<line fill="none" stroke="#87D0EE" stroke-width="5" stroke-miterlimit="10" x1="227.355" y1="412.725" x2="227.355" y2="351.335"/>
</svg>
